# xmcd
#
# Track frame offsets:
#  150
#  21134
#  40769
#  58126
#  74978
#  103339
#  123446
#  137740
#  164348
#  183272
#  210005
#  229428
#
# Disc length: 3278 seconds
#
# Revision: 0
# Processed by: cddbd v1.5.1PL0 Copyright (c) Steve Scherf et al.
# Submitted via: AltoMP3 Maker 3.0
#
DISCID=b00ccc0c
DTITLE=MuddCats - Good, Bad, N' Blue
DYEAR=1900
DGENRE=
TTITLE0=Low Down Dirty Shame
TTITLE1=Doubletimin'
TTITLE2=Down To The River
TTITLE3=Black Widow Baby
TTITLE4=If I Had A Dollar
TTITLE5=Good, Bad, N' Blue
TTITLE6=Stay Away From You
TTITLE7=If I Have The Blues
TTITLE8=Poor Boy Blues
TTITLE9=Best I Can
TTITLE10=Take You For A Ride
TTITLE11=Watermelon Wine
EXTD=
EXTT0=
EXTT1=
EXTT2=
EXTT3=
EXTT4=
EXTT5=
EXTT6=
EXTT7=
EXTT8=
EXTT9=
EXTT10=
EXTT11=
PLAYORDER=
